<?xml version="1.0" standalone="no"?><!DOCTYPE svg PUBLIC "-//W3C//DTD SVG 1.1//EN" "http://www.w3.org/Graphics/SVG/1.1/DTD/svg11.dtd"><svg t="1730941235175" class="icon" viewBox="0 0 1024 1024" version="1.1" xmlns="http://www.w3.org/2000/svg" p-id="5185" xmlns:xlink="http://www.w3.org/1999/xlink" width="200" height="200"><path d="M512 1024c282.7776 0 512-229.2224 512-512S794.7776 0 512 0 0 229.2224 0 512s229.2224 512 512 512z" fill="#FFFFFF" p-id="5186"></path><path d="M1024 512c0-282.7776-229.2224-512-512-512S0 229.2224 0 512s229.2224 512 512 512 512-229.2224 512-512zM374.528 512V414.0032h60.0064V354.816c0-79.872 23.9104-137.472 111.4112-137.472h104.0384v97.7408h-73.216c-36.7616 0-45.056 24.3712-45.056 49.92v49.0496h112.896L629.248 512h-97.536v295.5264H434.4832V512H374.528z" fill="#1B77F2" p-id="5187"></path></svg>