<?xml version="1.0" encoding="utf-8"?>
<!-- Generator: Adobe Illustrator 26.0.0, SVG Export Plug-In . SVG Version: 6.00 Build 0)  -->
<svg version="1.1" id="图层_1" xmlns="http://www.w3.org/2000/svg" xmlns:xlink="http://www.w3.org/1999/xlink" x="0px" y="0px"
	 viewBox="0 0 30 30" style="enable-background:new 0 0 30 30;" xml:space="preserve">
<style type="text/css">
	.st0{fill:#FFFFFF;}
</style>
<path class="st0" d="M15,4.4l2.7,5.5c0.5,1,1.5,1.7,2.6,1.9l6.1,0.9L22,17c-0.8,0.8-1.2,1.9-1,3l1,6.1l-5.4-2.9
	c-1-0.5-2.2-0.5-3.2,0L8,26.1L9,20c0.2-1.1-0.2-2.2-1-3l-4.4-4.3l6.1-0.9c1.1-0.2,2.1-0.9,2.6-1.9L15,4.4z M16,1.3
	c-0.3-0.6-1-0.8-1.5-0.5c-0.2,0.1-0.4,0.3-0.5,0.5l-3.7,7.6c-0.2,0.3-0.5,0.6-0.9,0.6L1,10.8c-0.6,0.1-1.1,0.7-1,1.3
	c0,0.2,0.2,0.5,0.3,0.7l6.1,5.9c0.3,0.3,0.4,0.6,0.3,1L5.3,28c-0.1,0.6,0.3,1.2,0.9,1.3c0.2,0,0.5,0,0.7-0.1l7.5-3.9
	c0.3-0.2,0.7-0.2,1.1,0l7.5,3.9c0.6,0.3,1.3,0.1,1.5-0.5c0.1-0.2,0.2-0.5,0.1-0.7l-1.4-8.4c-0.1-0.4,0.1-0.7,0.3-1l6.1-5.9
	c0.5-0.4,0.5-1.2,0-1.6c-0.2-0.2-0.4-0.3-0.7-0.3l-8.4-1.2c-0.4-0.1-0.7-0.3-0.9-0.6L16,1.3L16,1.3z"/>
</svg>
